PathFileType	4	(X/Y/Z)	C:/Users/beibeiliu/ov580/test_trc/User2\sequence.21_training_dense_right.trc
DataRate	CameraRate	NumFrames	NumMarkers	Units	OrigDataRate	OrigDataStartFrame	OrigNumFrames
120	120	8	19	mm	120	1	71
Frame#	Time	ThumbCMC			ThumbMCP			ThumbIP			ThumbTip			IndexMCP			IndexPIP			IndexTip			MiddleMCP			MiddlePIP			MiddleTip			RingMCP			RingPIP			RingTip			PinkyMCP			PinkyPIP			PinkyTip			BackHand1			BackHand2			BackHand3	
		X0	Y0	Z0	X1	Y1	Z1	X2	Y2	Z2	X3	Y3	Z3	X4	Y4	Z4	X5	Y5	Z5	X6	Y6	Z6	X7	Y7	Z7	X8	Y8	Z8	X9	Y9	Z9	X10	Y10	Z10	X11	Y11	Z11	X12	Y12	Z12	X13	Y13	Z13	X14	Y14	Z14	X15	Y15	Z15	X16	Y16	Z16	X17	Y17	Z17	X18	Y18	Z18	
0	0	99.0496	34.942	-26.2787	75.0647	23.969	-57.4468	75.6714	13.7923	-93.3166	93.4798	7.11828	-114.595	119.508	65.4552	-101.641	113.058	41.2675	-127.191	107.822	11.1959	-124.915	152.051	76.8076	-98.9275	149.026	85.6674	-129.05	153.586	92.9455	-159.25	173.168	66.8692	-90.3328	179.721	79.8663	-113.849	187.709	94.1891	-137.137	187.558	44.0929	-78.3032	201.352	55.1377	-97.2847	213.81	67.0416	-109.402	167.646	48.3245	-40.5855	165.355	43.6665	-6.4337	134.068	59.0007	-22.9308	
1	0.00833333	85.1233	33.0971	-27.2002	66.959	19.6866	-51.249	65.208	10.7176	-89.7891	75.3928	2.25511	-113.012	103.819	61.7115	-98.0247	95.609	38.737	-124.286	97.3912	4.47718	-119.901	131.665	76.7887	-94.491	129.984	87.2817	-129.914	133.052	93.5568	-159.212	155.518	69.299	-89.808	166.649	77.447	-110.06	167.837	93.9477	-137.004	172.423	43.8929	-77.542	186.702	56.0192	-98.6172	195.004	69.9633	-115.665	153.549	48.0452	-38.8568	153.023	42.9832	-5.33895	120.325	59.7144	-22.6677	
2	0.0166667	71.7774	24.754	-18.721	55.1805	11.2254	-48.7978	49.4571	-0.33728	-84.1201	62.5461	-7.82357	-106.301	88.4855	50.0322	-97.4853	78.6416	29.0139	-120.245	82.3626	-5.41974	-116.968	115.474	67.8028	-100.167	112.223	74.4737	-130.761	114.242	78.672	-162.65	143.213	56.9822	-90.7693	147.012	65.9105	-112.943	151.774	77.8198	-140.579	158.745	36.009	-79.3146	170.627	41.8621	-100.248	178.501	54.0006	-116.888	141.428	41.4653	-40.2313	144.561	38.9094	-8.02689	109.776	52.639	-21.0054	
3	0.025	60.8706	18.784	-17.8444	40.5731	1.39561	-40.1241	36.6433	-13.8071	-76.5442	46.706	-25.9828	-99.2064	73.1369	34.3309	-95.2211	63.5477	5.52701	-116.788	67.7283	-25.7696	-108.91	106.229	48.1447	-101.899	100.958	51.0433	-135.941	99.9844	50.4081	-165.18	129.449	40.5061	-95.4684	135.586	45.6093	-121.105	136.517	52.0698	-147.496	145.758	18.1628	-80.1548	155.266	20.465	-101.596	167.264	31.4032	-124.415	128.497	32.8987	-41.3931	133.548	29.8255	-7.1593	96.3575	45.2293	-25.9468	
4	0.0333333	52.3961	16.7021	-14.4236	31.6341	-3.54437	-31.388	21.1711	-24.0732	-61.6507	31.6447	-40.8225	-83.7044	61.5948	15.2997	-96.1958	47.7141	-10.2989	-109.63	50.1373	-42.3409	-96.0124	90.2239	27.7615	-99.8376	83.9331	23.4285	-136.716	80.518	19.8544	-163.613	116.009	15.5686	-93.5673	118.735	17.4088	-125.159	121.713	19.1994	-152.835	133.697	-4.71949	-77.8006	142.365	-4.00703	-106.234	151.325	-1.30342	-127.939	120.462	19.1396	-39.9589	130.657	23.3184	-9.70496	95.3674	35.7465	-24.6252	
5	0.0416667	49.8556	22.323	-11.5001	25.4168	4.33043	-21.8728	8.08184	-17.3636	-41.7369	10.9051	-38.8403	-61.949	47.2392	8.32549	-89.0595	32.659	-21.1208	-98.2065	21.5456	-46.2204	-75.5513	80.547	9.33642	-100.286	70.9725	0.96171	-131.354	60.52	-6.14708	-157.421	101.153	-4.76236	-97.0295	103.937	-11.8036	-121.32	98.6145	-14.5707	-147.93	118.93	-25.9243	-78.972	119.826	-31.25	-100.639	130.762	-34.7225	-126.66	116.238	4.04275	-44.4004	124.354	14.6619	-15.6747	92.8747	30.7708	-31.4443	
6	0.05	55.8095	35.4543	-10.6471	21.2415	29.5356	-15.2154	-6.30349	9.46123	-33.1021	-10.2575	-16.3014	-47.9254	38.8512	12.8253	-85.4781	10.3423	-6.9679	-86.5885	2.94391	-29.7972	-62.7955	66.9398	4.60384	-99.7828	51.4565	-5.74425	-126.831	36.8142	-16.3269	-152.096	86.7949	-19.8353	-94.6672	81.3285	-29.1197	-117.728	73.7103	-35.5854	-142.585	94.53	-37.3374	-72.368	94.2633	-52.3929	-96.7836	96.8254	-59.5712	-121.396	107.179	-1.73834	-43.2959	121.009	7.51644	-17.215	93.5716	30.0151	-34.5037	
7	0.0583333	67.9829	53.223	-8.84826	31.2517	57.888	-14.0235	-1.87684	47.114	-26.2918	-15.7483	21.876	-39.9226	34.0642	30.2339	-83.193	1.64102	16.7204	-78.2133	-14.0746	5.92113	-50.0359	55.556	6.29664	-98.4915	34.6215	1.09008	-122.877	14.0579	-9.25319	-147.611	66.7824	-20.7349	-90.3867	56.5265	-30.0712	-112.976	43.7919	-31.7088	-135.715	70.6874	-36.6535	-65.1325	61.8282	-48.8875	-86.1622	60.795	-62.0733	-109.423	95.8339	-5.4465	-46.985	117.711	0.296338	-17.6741	98.5124	32.5765	-35.3786	
